<svg width="156" height="155" viewBox="0 0 156 155" fill="none" xmlns="http://www.w3.org/2000/svg">
<path d="M77.5606 37.7421C55.5561 37.7421 37.8072 55.4767 37.8072 77.4634C37.8072 99.4501 55.5561 117.185 77.5606 117.185C99.565 117.185 117.314 99.4501 117.314 77.4634C117.314 55.4767 99.565 37.7421 77.5606 37.7421ZM77.5606 103.287C63.3407 103.287 51.7157 91.7064 51.7157 77.4634C51.7157 63.2205 63.3061 51.6394 77.5606 51.6394C91.815 51.6394 103.405 63.2205 103.405 77.4634C103.405 91.7064 91.7804 103.287 77.5606 103.287ZM128.212 36.1173C128.212 41.2683 124.061 45.3822 118.94 45.3822C113.785 45.3822 109.668 41.2337 109.668 36.1173C109.668 31.0009 113.819 26.8525 118.94 26.8525C124.061 26.8525 128.212 31.0009 128.212 36.1173ZM154.542 45.5205C153.953 33.1097 151.116 22.1164 142.017 13.0589C132.952 4.00151 121.95 1.16675 109.529 0.544482C96.728 -0.181494 58.3585 -0.181494 45.5572 0.544482C33.171 1.13218 22.1688 3.96694 13.0695 13.0244C3.97015 22.0818 1.16769 33.0751 0.544922 45.4859C-0.181641 58.2769 -0.181641 96.6154 0.544922 109.406C1.13309 121.817 3.97015 132.81 13.0695 141.868C22.1688 150.925 33.1364 153.76 45.5572 154.382C58.3585 155.108 96.728 155.108 109.529 154.382C121.95 153.795 132.952 150.96 142.017 141.868C151.082 132.81 153.919 121.817 154.542 109.406C155.268 96.6154 155.268 58.3115 154.542 45.5205ZM138.004 123.131C135.305 129.907 130.081 135.127 123.265 137.858C113.058 141.902 88.8396 140.969 77.5606 140.969C66.2815 140.969 42.0282 141.868 31.8563 137.858C25.0751 135.161 19.8507 129.941 17.1175 123.131C13.0695 112.933 14.0036 88.7333 14.0036 77.4634C14.0036 66.1935 13.1041 41.9597 17.1175 31.796C19.8161 25.0203 25.0405 19.8001 31.8563 17.0691C42.0628 13.0244 66.2815 13.9578 77.5606 13.9578C88.8396 13.9578 113.093 13.0589 123.265 17.0691C130.046 19.7656 135.27 24.9857 138.004 31.796C142.052 41.9943 141.117 66.1935 141.117 77.4634C141.117 88.7333 142.052 112.967 138.004 123.131Z" fill="#D9D9D9"/>
</svg>
