<svg width="159" height="159" viewBox="0 0 159 159" fill="none" xmlns="http://www.w3.org/2000/svg">
<circle cx="79.5" cy="79.5" r="78.5" stroke="white" stroke-width="2"/>
<path d="M79.0085 59.5146C68.2252 59.5146 59.5274 68.2143 59.5274 79C59.5274 89.7857 68.2252 98.4854 79.0085 98.4854C89.7917 98.4854 98.4896 89.7857 98.4896 79C98.4896 68.2143 89.7917 59.5146 79.0085 59.5146ZM79.0085 91.6681C72.04 91.6681 66.3432 85.9869 66.3432 79C66.3432 72.0131 72.0231 66.3319 79.0085 66.3319C85.9939 66.3319 91.6737 72.0131 91.6737 79C91.6737 85.9869 85.9769 91.6681 79.0085 91.6681ZM103.83 58.7175C103.83 61.2443 101.796 63.2624 99.2865 63.2624C96.7602 63.2624 94.7426 61.2274 94.7426 58.7175C94.7426 56.2076 96.7771 54.1726 99.2865 54.1726C101.796 54.1726 103.83 56.2076 103.83 58.7175ZM116.733 63.3302C116.445 57.2421 115.054 51.8493 110.595 47.4061C106.153 42.963 100.762 41.5724 94.6747 41.2671C88.4015 40.911 69.5986 40.911 63.3253 41.2671C57.2554 41.5554 51.8638 42.946 47.4047 47.3892C42.9456 51.8323 41.5722 57.2251 41.267 63.3133C40.911 69.588 40.911 88.3951 41.267 94.6697C41.5553 100.758 42.9456 106.151 47.4047 110.594C51.8638 115.037 57.2385 116.428 63.3253 116.733C69.5986 117.089 88.4015 117.089 94.6747 116.733C100.762 116.445 106.153 115.054 110.595 110.594C115.037 106.151 116.428 100.758 116.733 94.6697C117.089 88.3951 117.089 69.6049 116.733 63.3302ZM108.629 101.402C107.306 104.726 104.746 107.287 101.406 108.627C96.4041 110.611 84.5358 110.153 79.0085 110.153C73.4812 110.153 61.5959 110.594 56.6112 108.627C53.288 107.304 50.7278 104.743 49.3884 101.402C47.4047 96.3995 47.8625 84.5285 47.8625 79C47.8625 73.4715 47.4216 61.5835 49.3884 56.5977C50.7109 53.2738 53.2711 50.713 56.6112 49.3733C61.6128 47.3892 73.4812 47.847 79.0085 47.847C84.5358 47.847 96.4211 47.4061 101.406 49.3733C104.729 50.6961 107.289 53.2568 108.629 56.5977C110.612 61.6005 110.154 73.4715 110.154 79C110.154 84.5285 110.612 96.4165 108.629 101.402Z" fill="white"/>
</svg>
