<svg width="191" height="155" viewBox="0 0 191 155" fill="none" xmlns="http://www.w3.org/2000/svg">
<path d="M171.367 38.6288C171.488 40.324 171.488 42.0196 171.488 43.7148C171.488 95.4216 132.101 155 60.1119 155C37.9334 155 17.3307 148.582 0 137.442C3.15114 137.805 6.18066 137.926 9.45304 137.926C27.7529 137.926 44.599 131.75 58.0515 121.215C40.8421 120.852 26.42 109.59 21.451 94.0898C23.8751 94.4529 26.2988 94.6952 28.8441 94.6952C32.3586 94.6952 35.8734 94.2106 39.1455 93.3633C21.2089 89.7302 7.75605 73.9882 7.75605 54.9765V54.4923C12.9672 57.3986 19.0273 59.2149 25.4501 59.4569C14.9063 52.4333 7.99853 40.4451 7.99853 26.8825C7.99853 19.6171 9.93726 12.9569 13.3309 7.14435C32.6007 30.8787 61.566 46.3784 94.0455 48.0741C93.4397 45.1678 93.0759 42.1407 93.0759 39.1133C93.0759 17.5584 110.528 0 132.221 0C143.492 0 153.672 4.72264 160.823 12.3516C169.67 10.6563 178.153 7.38663 185.668 2.90627C182.759 11.9885 176.578 19.6174 168.458 24.4608C176.336 23.6136 183.971 21.4334 191 18.4064C185.668 26.1561 179.002 33.0581 171.367 38.6288Z" fill="white"/>
</svg>
