<svg width="159" height="159" viewBox="0 0 159 159" fill="none" xmlns="http://www.w3.org/2000/svg">
<circle cx="79.5" cy="79.5" r="78.5" stroke="white" stroke-width="2"/>
<path d="M116.338 59.9406C116.397 60.7718 116.397 61.6032 116.397 62.4344C116.397 87.7874 97.013 117 61.5839 117C50.6688 117 40.5292 113.853 32 108.391C33.5508 108.569 35.0418 108.628 36.6523 108.628C45.6585 108.628 53.9493 105.6 60.5699 100.434C52.1003 100.256 45.0025 94.7344 42.557 87.1344C43.75 87.3124 44.9429 87.4312 46.1955 87.4312C47.9252 87.4312 49.655 87.1936 51.2653 86.7782C42.4379 84.9968 35.8171 77.2781 35.8171 67.9562V67.7188C38.3817 69.1438 41.3642 70.0344 44.5252 70.153C39.3361 66.7092 35.9364 60.8312 35.9364 54.1811C35.9364 50.6187 36.8906 47.3531 38.5607 44.503C48.0443 56.1405 62.2995 63.7404 78.2842 64.5718C77.986 63.1468 77.807 61.6626 77.807 60.1782C77.807 49.6093 86.3959 41 97.0723 41C102.619 41 107.629 43.3156 111.148 47.0562C115.502 46.225 119.678 44.6218 123.376 42.425C121.944 46.8782 118.902 50.6189 114.906 52.9937C118.783 52.5783 122.541 51.5093 126 50.0251C123.376 53.8249 120.095 57.2091 116.338 59.9406Z" fill="white"/>
</svg>
